<?xml version="1.0" encoding="UTF-8"?>
<!DOCTYPE svg PUBLIC "-//W3C//DTD SVG 1.1//EN" "http://www.w3.org/Graphics/SVG/1.1/DTD/svg11.dtd">
<!-- Creator: CorelDRAW -->
<svg xmlns="http://www.w3.org/2000/svg" xml:space="preserve" width="3.89135cm" height="3.92544cm" version="1.1" style="shape-rendering:geometricPrecision; text-rendering:geometricPrecision; image-rendering:optimizeQuality; fill-rule:evenodd; clip-rule:evenodd"
viewBox="0 0 8697.25 8773.44"
 xmlns:xlink="http://www.w3.org/1999/xlink"
 xmlns:xodm="http://www.corel.com/coreldraw/odm/2003">
 <defs>
  <style type="text/css">
   <![CDATA[
    .fil0 {fill:#16465D}
    .fil1 {fill:white}
   ]]>
  </style>
 </defs>
 <g id="Layer_x0020_1">
  <metadata id="CorelCorpID_0Corel-Layer"/>
  <g id="_2135985926576">
   <path class="fil0" d="M4845.39 2258.64c12.94,15.51 147.76,101.05 189.35,127.73 93.74,60.12 119.53,41.64 144,177.57 74.47,413.59 252.53,1204.54 350.12,1595.87 28.12,-47.16 308.14,-1142.77 319.21,-1246.36l261.94 159.56 1.03 2551.68c-92.19,-38.82 -205.38,-125.12 -283.58,-148.96l9.88 -939.42 -226.72 859.63c-27.09,-12.49 -43.63,-38.29 -63.25,-63.65 -24.38,-31.56 -35.58,-39.67 -61.31,-70.11 -37.73,-44.59 -52.05,-100.49 -66.98,-182.47 -78.16,-429.79 -185.22,-863.95 -256.54,-1261.58l1.18 1236.08c-60.52,-19.87 -112.78,-62.22 -164.94,-92.24 -52.23,-30.06 -108.44,-63.32 -157.73,-89.74l4.34 -2613.59zm1613.64 6087.82c-18.04,-1084.32 -1.72,-2183.46 -4.2,-3269.72 -1.23,-544.63 -2.57,-1089.39 -2.35,-1633.98 0.07,-135.15 -0.76,-270.33 -0.8,-405.5 -0.13,-338.05 52.99,-182.56 -485.92,-521.27 -48.92,-30.75 -86.81,-59.81 -140.61,-74.87l7.51 -1684.76c-88.64,-30.44 -1259.19,-728.8 -1350.98,-756.35 13.19,930.91 3.26,1867.16 5.36,2798.69 0.22,99.37 -14.55,5190.23 4,5232.99 12.23,28.18 78.72,56.23 107.64,74.14 41.86,25.88 70.47,38.15 114.66,64.28l438.22 253.56c156.85,85.85 294.51,173.86 446.36,257.38 184.37,101.38 122.12,164.59 434.38,-58.94 74.72,-53.51 358.3,-246.23 426.73,-275.65z"/>
   <path class="fil0" d="M2586.39 3156.52c0.2,-110.48 -14.93,-147.69 52.5,-205.96 89.07,-77 359.39,-237.99 462.52,-312.68 79.05,-57.28 568.5,-384.76 624.02,-403.31l1.54 421.01c0.16,91.59 15.38,459.61 -20.52,504.96l-347.86 295.63c35.74,-154.31 19.02,-430.62 26.08,-615.68 -39.67,15.29 -87.84,54.11 -120.42,79.21 -35,26.91 -72.79,52.05 -113.49,77.51 -60.23,37.68 -168.3,123.02 -221.83,145.28l-7.87 1804.94c46.69,-13.48 420.21,-272.92 465.6,-304.81l8.47 -281.46c30.49,-26.28 63.59,-42.02 91.9,-61.15l238.77 -194.13 -3.87 694.67c-7.46,19.29 -368.8,244.91 -446.29,301.3l-439.43 291.51c-69.02,-54.18 -178.33,-127.17 -252.27,-174.35l2.44 -2062.48zm-571.05 -351.93c14.37,1245.73 4.72,2564.11 0.4,3810.71 80.1,65.8 1656.75,954.67 1934.84,1124.64 37.28,22.77 103.21,62.29 147.09,75.43 -9.63,-1766.76 0.89,-3587.77 3.91,-5362.53l1.63 -991.66 -651.02 418.04c-169.3,112.22 -1381.11,905.45 -1436.85,925.37z"/>
   <path class="fil0" d="M6774.93 2970.23l1791.91 1060.32c58.45,34.91 79.23,56.34 130.41,71.43l-1.12 -1669.29c-60.79,-23.22 -166.89,-91.81 -237.23,-131.87 -82.34,-46.89 -157.9,-93.94 -240.87,-140.67l-1447.27 -839.09 4.16 1649.18z"/>
   <path class="fil0" d="M-0 4265.72l2.64 1673.25 37.75 -53.26c11.04,-23.31 16.41,-35.29 27.22,-56.05 65.24,-125.43 117.14,-245.56 239.88,-280.23 42.09,-263.06 79.57,-246.57 198.36,-318.96l522.66 -356.78 3.26 -514.59c-91.32,45.46 -675.22,453.87 -792.99,511.4 79.16,-136.67 118.25,-381.74 118.41,-382.12 9.45,-23.2 214.23,-143.87 237.31,-158.53 110.92,-70.43 672.25,-440.84 737.6,-465.33l2.68 1069.12c0.11,139.42 -5.21,123.17 -95.97,183.03l-489.83 341.35c20.65,38.38 47.56,58.18 75.77,99.75l553.01 736.84c104.44,-52.72 193.55,-141.97 300.74,-202.74 15.65,-388.29 2.61,-1075.63 3.91,-1492.19l2.21 -1421.41c-61.42,17.75 -551.67,351.7 -634.92,401.59 -218.5,130.84 -597.96,390.66 -837.95,545.5l-211.77 140.36z"/>
   <path class="fil0" d="M3.4 2272.86l3.04 1514.87c100.08,-50.65 1286.19,-836.37 1464.97,-954.71 38.93,-25.79 72.86,-40.66 110.61,-68.66 38.6,-28.61 72.03,-47.38 101.31,-73l2.46 -1485.95 -1682.39 1067.45z"/>
   <path class="fil1" d="M4841.06 4872.23c49.28,26.42 105.49,59.68 157.73,89.74 52.17,30.02 104.42,72.37 164.94,92.24l-1.18 -1236.08c71.32,397.63 178.38,831.79 256.54,1261.58 14.93,81.98 29.26,137.88 66.98,182.47 25.73,30.44 36.92,38.55 61.31,70.11 19.62,25.37 36.16,51.16 63.25,63.65l226.72 -859.63 -9.88 939.42c78.2,23.85 191.38,110.14 283.58,148.96l-1.03 -2551.68 -261.94 -159.56c-11.06,103.59 -291.09,1199.2 -319.21,1246.36 -97.58,-391.33 -275.65,-1182.28 -350.12,-1595.87 -24.47,-135.93 -50.27,-117.45 -144,-177.57 -41.59,-26.69 -176.41,-112.22 -189.35,-127.73l-4.34 2613.59z"/>
   <path class="fil0" d="M8324.04 6018.98l0.72 595.19 -268.18 -165.86c-91.08,-53.84 -173.26,-110.79 -262.68,-166.96l-1.03 -312.28c-66.29,-42.53 -283.51,-190.24 -353.25,-210.43l1.3 761.25 664.61 416.56c73.49,46.49 161.52,89.2 226.43,141.05 58.31,-19.96 123.1,-74.56 175.25,-106.83 251.24,-155.65 176.07,-32.16 177.73,-772.8 1.16,-523.51 47.47,-282.42 -338.58,-659.2l-181.01 -152.9c-110.12,-84.06 -284.21,-255.71 -368.93,-307.14l0.89 -625.54c116.85,56.84 392,262.61 530.1,327.54l4.69 331.9 347.75 217.69 2.61 -778.26c-51.2,-46.64 -556.92,-348.1 -622.34,-385.25l-468.3 -283.4c-44.21,-27.51 -111.8,-71.79 -152.7,-90.41l1.94 1343.83c-0.38,120.18 -14.68,89.8 154.75,234.16l623.62 545.3c28.59,26.15 79.54,74.98 104.62,102.77z"/>
   <path class="fil1" d="M2586.39 3156.52l-2.44 2062.48c73.93,47.18 183.25,120.18 252.27,174.35l439.43 -291.51c77.49,-56.39 438.82,-282.01 446.29,-301.3l3.87 -694.67 -238.77 194.13c-28.32,19.13 -61.42,34.87 -91.9,61.15l-8.47 281.46c-45.39,31.89 -418.91,291.33 -465.6,304.81l7.87 -1804.94c53.53,-22.26 161.59,-107.59 221.83,-145.28 40.7,-25.46 78.49,-50.6 113.49,-77.51 32.59,-25.1 80.75,-63.92 120.42,-79.21 -7.06,185.06 9.66,461.38 -26.08,615.68l347.86 -295.63c35.89,-45.35 20.67,-413.37 20.52,-504.96l-1.54 -421.01c-55.52,18.55 -544.97,346.03 -624.02,403.31 -103.12,74.69 -373.45,235.68 -462.52,312.68 -67.43,58.27 -52.3,95.48 -52.5,205.96z"/>
   <path class="fil0" d="M4.36 5967.89l-0.4 1085.84c52.46,-23.2 271.53,-197.71 363.57,-245.67l-2.82 -1058.75c-57.66,27.62 -120.33,70.29 -176.7,105.11 -44.14,27.29 -138.91,98.01 -183.65,113.47z"/>
   <path class="fil0" d="M6792.74 3854.36l344.91 198.51 -0.13 -431.22c-45.82,-39.67 -282.6,-178.62 -346.07,-204.68l1.3 437.39z"/>
   <polygon class="fil0" points="6793.59,6088.29 7133.49,6288.12 7134.61,5846.03 6793.59,5647.83 "/>
   <path class="fil0" d="M7134.41 4788.53c-0.38,-78.87 -0.09,-157.7 0.16,-236.58 0.18,-64.99 17.99,-171.6 -27.42,-207.41 -29.86,-23.51 -275.44,-163.87 -307.87,-175.76l-2.28 360.29c1.21,64.23 -7.38,56.97 38.2,87.9 36.99,25.1 281.7,168.21 299.22,171.56z"/>
   <path class="fil0" d="M6795.36 5327.17c42.82,33.08 302.2,195.61 343.08,206.25l-4.98 -419.04 -83.86 -56.39c-74.9,-42.06 -187.61,-118.03 -250.59,-141.97l-3.64 411.15z"/>
  </g>
 </g>
</svg>
